<?xml version="1.0" encoding="utf-8"?>
<!-- Generator: Adobe Illustrator 16.0.0, SVG Export Plug-In . SVG Version: 6.00 Build 0)  -->
<!DOCTYPE svg PUBLIC "-//W3C//DTD SVG 1.1//EN" "http://www.w3.org/Graphics/SVG/1.1/DTD/svg11.dtd">
<svg version="1.1" id="Layer_1" xmlns="http://www.w3.org/2000/svg" xmlns:xlink="http://www.w3.org/1999/xlink" x="0px" y="0px"
	 width="841.89px" height="220.245px" viewBox="0 0 841.89 220.245" enable-background="new 0 0 841.89 220.245"
	 xml:space="preserve">
<g>
	<path fill="#1D1D1B" d="M344.398,149.15c0-1.7-1.108-2.958-3.373-3.448v-1.1c1.254,0,5.43,0.168,6.605,0.168
		c1.016,0,5.06-0.168,6.318-0.168v1.1c-2.102,0.41-3.206,1.651-3.206,3.448v21.581c0,6.834,3.753,10.697,11.603,10.697
		c6.764,0,12.026-3.037,12.026-10.189v-22.173c0-1.603-1.006-2.874-3.541-3.364v-1.1c0.923,0,4.375,0.168,5.554,0.168
		c1.007,0,4.631-0.168,5.559-0.168v1.1c-2.446,0.583-3.532,1.678-3.532,3.364v20.984c0,9.418-5.479,14.826-17.302,14.826
		c-11.007,0-16.711-5.003-16.711-13.851V149.15z"/>
	<path fill="#1D1D1B" d="M391.612,183.186c2.561-0.477,3.572-1.774,3.572-3.364v-29.828c0-2.529-1.347-3.668-3.643-4.295v-1.1
		c1.298,0.097,3.479,0.154,4.592,0.154c1.011,0,2.583-0.018,3.642-0.154l25.872,30.42v-25.952c0-1.599-1.016-2.87-3.54-3.368v-1.1
		c0.927,0,4.256,0.172,5.438,0.172c1.029,0,4.597-0.172,5.536-0.172v1.1c-2.468,0.582-3.659,1.687-3.659,3.368v35.811h-1.559
		c-0.98-0.226-2.835-1.28-5.66-4.38l-23.148-26.963v26.287c0,1.599,0.922,2.865,3.448,3.364v1.104c-0.927,0-4.256-0.177-5.439-0.177
		c-1.02,0-4.512,0.177-5.453,0.177V183.186z"/>
	<path fill="#1D1D1B" d="M595.763,175.142h1.095c0.579,2.229,1.854,4.261,3.643,5.435c1.859,1.312,4.777,1.938,7.135,1.938
		c5.205,0,8.504-2.578,8.504-6.658c0-4.225-4.226-6.419-9.289-8.949c-3.767-1.885-11.166-4.997-11.166-12.149
		c0-6.663,5.082-10.809,13.21-10.809c5.364,0,7.881,1.312,11.501,1.144l-0.07,8.084h-1.104c-1.448-4.764-5.774-6.424-10.512-6.424
		c-5.298,0-7.28,3.029-7.28,6.11c0,4.411,4.317,6.636,9.209,8.817c5.502,2.45,11.471,5.545,11.471,12.437
		c0,6.525-5.104,11.25-14.433,11.25c-5.55,0-8.879-1.585-11.797-1.943L595.763,175.142z"/>
	<path fill="#1D1D1B" d="M712.978,166.241v13.501c0,1.338,1.02,3.02,3.324,3.443v1.104c-1.284,0-5.479-0.177-6.692-0.177
		c-1.021,0-5.043,0.177-6.495,0.177v-1.104c2.313-0.424,3.422-2.105,3.422-3.443v-12.909 M706.946,167.87l-10.534-16.9
		c-1.797-2.967-3.174-4.53-5.179-5.271v-1.096c1.444,0,5.343,0.173,6.45,0.173c1.002,0,5.21-0.173,6.729-0.173v1.096
		c-1.347,0.238-1.978,0.913-1.978,1.929c0,0.896,0.609,2.049,1.223,3.051c0.601,0.993,7.767,12.879,7.767,12.879l7.482-12.874
		c0.756-1.289,1.29-2.569,1.29-3.413c0-0.769-0.544-1.404-1.819-1.571v-1.096c1.268,0,3.93,0.173,4.777,0.173
		s3.907-0.173,5.165-0.173v1.021c-2.878,1.179-4.675,3.704-6.419,6.631l-9.576,16.005"/>
	<path fill="#1D1D1B" d="M511.206,144.603h24.702c0.764,0,2.102-0.088,2.865-0.419h1.104l-0.173,8.026h-1.095
		c-0.94-2.525-1.916-4.548-6.697-4.548h-10.725v13.987h8.266c1.205,0,2.666-0.102,3.298-0.252c1.858-0.406,2.676-1.439,3.051-3.024
		h1.104c-0.079,1.21-0.079,3.97-0.079,4.786c0,0.821,0.079,3.727,0.079,5.042h-1.104c-0.53-1.581-1.254-2.781-3.051-3.223
		c-0.632-0.168-2.119-0.305-3.298-0.305h-8.266v16.406h11.665c5.095,0,6.574-2.124,7.841-5.126l1.091,0.256l-1.091,8.243
		c-3.788-0.336-6.062-0.336-10.362-0.336h-12.326c-1.188,0-5.546,0.173-6.812,0.173v-1.1c2.225-0.424,3.523-1.523,3.523-3.656
		V149.19c0-1.881-1.012-3.056-3.511-3.475V144.603z"/>
	<path fill="#1D1D1B" d="M448.115,149.406c0-2.035-1.214-3.156-3.594-3.669v-1.09c1.325,0,5.612,0.167,6.861,0.167
		c1.047,0,5.453-0.167,6.795-0.167v1.09c-2.366,0.513-3.607,1.527-3.607,3.669v30.133c0,2.035,1.219,3.144,3.607,3.646v1.104
		c-1.338,0-5.563-0.173-6.795-0.173c-1.064,0-5.536,0.173-6.865,0.173v-1.104c2.433-0.454,3.598-1.519,3.598-3.646V149.406z"/>
	<path fill="#1D1D1B" d="M635.503,149.406c0-2.035-1.228-3.156-3.603-3.669v-1.09c1.324,0,5.615,0.167,6.855,0.167
		c1.056,0,5.462-0.167,6.8-0.167v1.09c-2.366,0.513-3.603,1.527-3.603,3.669v30.133c0,2.035,1.219,3.144,3.603,3.646v1.104
		c-1.329,0-5.55-0.173-6.8-0.173c-1.046,0-5.531,0.173-6.855,0.173v-1.104c2.428-0.454,3.603-1.519,3.603-3.646V149.406z"/>
	<path fill="#1D1D1B" d="M669.838,144.771c-13.541,0-15.708-0.252-18.477-0.424l0.022,8.177h1.104
		c1.011-3.625,3.028-4.468,5.643-4.468h8.494v31.483c0,2.128-1.165,3.192-3.603,3.646v1.104c1.338,0,5.85-0.173,6.892-0.173
		c1.241,0,5.479,0.173,6.8,0.173v-1.104c-2.394-0.503-3.607-1.611-3.607-3.646v-31.483h8.428c2.711,0,4.649,0.923,5.66,4.468h1.091
		l0.018-8.177C685.551,144.519,683.384,144.771,669.838,144.771"/>
	<path fill="#1D1D1B" d="M561.785,163.362c1.263,0.172,3.121,0.252,4.958,0.252c7.431,0,9.771-4.274,9.771-8.058
		c0-5.351-3.572-8.667-10.075-8.667c-1.347,0-3.298,0.168-4.653,0.424V163.362z M561.785,179.539c0,2.035,1.293,3.139,3.682,3.646
		v1.104c-1.324,0-5.655-0.173-6.892-0.173c-1.06,0-5.289,0.173-6.622,0.173v-1.104c2.216-0.424,3.522-1.519,3.522-3.646v-30.441
		c0-1.872-1.02-3.051-3.514-3.475v-1.095c1.324,0,5.514,0.167,6.697,0.167c1.938,0,7.448-0.326,9.616-0.326
		c9.492,0,14.776,3.925,14.776,10.653c0,5.289-3.934,8.865-9.991,10.326c0,0,1.383,0.804,2.76,2.406
		c1.674,1.974,6.194,8.46,8.07,10.729c1.872,2.274,4.27,4.812,6.839,4.928v0.887c-1.231,0.27-3.205,0.504-4.715,0.504
		c-3.224,0-5.797-1.139-8.296-4.163c-2.163-2.632-5.832-8.093-7.991-10.853c-1.382-1.757-3.056-3.13-6.119-3.634
		c-0.592-0.102-1.152-0.186-1.823-0.265V179.539z"/>
	<path fill="#1D1D1B" d="M467.696,149.534c-0.865-1.916-2.194-3.32-4.459-3.818v-1.117c1.408,0,6.287,0.177,7.359,0.177
		c0.985,0,5.25-0.177,6.698-0.177v1.086c-1.285,0.247-2.751,0.958-2.751,2.273c0,0.94,0.569,2.221,1.66,4.632l10.226,23.267
		l9.678-23.307c0.764-1.881,1.315-3.338,1.315-4.45c0-1.231-1.135-2.084-2.742-2.415v-1.086c1.285,0,4.438,0.177,5.418,0.177
		c0.896,0,4.596-0.177,6.009-0.177v1.117c-2.415,0.653-3.886,1.982-5.241,5.13l-14.243,33.585H483.4L467.696,149.534z"/>
	<path fill="#1D1D1B" d="M504.213,43.618c-1.646-3.634-4.172-6.283-8.45-7.232v-2.115c2.662,0,11.501,0.318,13.532,0.318
		c1.872,0,10.433-0.318,13.161-0.318v2.062c-2.42,0.473-5.201,1.824-5.201,4.318c0,1.761,1.095,4.194,3.126,8.755l19.396,44.093
		l18.353-44.168c1.431-3.576,2.499-6.309,2.499-8.424c0-2.349-2.172-3.942-5.214-4.574v-2.062c2.428,0,8.331,0.318,10.207,0.318
		c1.705,0,8.716-0.318,11.383-0.318v1.996c-4.574,1.241-7.373,3.868-9.921,9.833l-26.98,63.66h-6.105L504.213,43.618z"/>
	<path fill="#1D1D1B" d="M243.051,107.336c3.523-0.804,6-2.406,6-6.397V42.576c0-3.832-2.305-5.422-6-6.384v-2.071
		c1.85,0,9.819,0.313,11.757,0.313c2.234,0,10.587-0.313,12.424-0.313v2.071c-3.519,0.799-6.128,2.397-6.128,6.384v24.38h43.479
		v-24.38c0-3.987-2.317-5.585-5.991-6.384v-2.071c1.837,0,10.04,0.313,12.27,0.313c1.925,0,10.08-0.313,11.898-0.313v2.071
		c-3.523,0.799-6.132,2.397-6.132,6.384v58.362c0,3.832,2.45,5.439,6.132,6.397v1.911c-1.819,0-9.974-0.158-11.898-0.158
		c-2.229,0-10.433,0.158-12.27,0.158v-1.911c3.497-0.804,5.991-2.406,5.991-6.397V73.357h-43.479v27.581
		c0,3.991,2.446,5.439,6.128,6.397v1.911c-1.837,0-10.19-0.158-12.424-0.158c-1.938,0-9.908,0.158-11.757,0.158V107.336z"/>
	<path fill="#1D1D1B" d="M765.009,103.49c2.724,0.495,7.757,0.804,11.726,0.804c22.469,0,34.164-13.523,34.164-32.384
		c0-19.554-12.34-33.312-33.347-33.312c-4.292,0-9.655,0.322-12.543,0.791V103.49z M745.967,107.336
		c4.512-0.804,6.998-2.596,6.998-6.715V42.576c0-4-2.451-5.585-6.812-6.384v-2.071c2.512,0,10.688,0.313,12.953,0.313
		c3.656,0,13.854-0.799,21.793-0.799c26.746,0,42.984,14.936,42.984,37.647c0,22.075-16.896,38.433-44.473,38.433
		c-7.951,0-17.382-0.627-21.072-0.627c-2.243,0-9.868,0.317-12.371,0.317V107.336z"/>
	<path fill="#1D1D1B" d="M443.224,69.799c2.38,0.313,5.898,0.472,9.387,0.472c14.066,0,18.485-8.097,18.485-15.25
		c0-10.159-6.764-16.424-19.086-16.424c-2.539,0-6.238,0.322-8.786,0.791V69.799z M443.224,100.409c0,3.868,2.45,5.969,6.958,6.927
		v2.07c-2.512,0-10.693-0.317-13.046-0.317c-1.987,0-10.014,0.317-12.521,0.317v-2.07c4.186-0.804,6.653-2.888,6.653-6.927V42.779
		c0-3.545-1.916-5.788-6.645-6.587v-2.071c2.513,0,10.441,0.313,12.667,0.313c3.678,0,14.106-0.613,18.221-0.613
		c17.987,0,28,7.439,28,20.163c0,10.031-7.47,16.782-18.936,19.567c0,0,2.601,1.515,5.218,4.565
		c3.175,3.73,11.935,16.27,15.476,20.565c3.54,4.3,8.083,9.104,12.94,9.325v1.691c-2.327,0.503-6.054,0.932-8.901,0.932
		c-6.132,0-11.002-2.146-15.739-7.886c-4.084-4.98-11.228-15.567-15.32-20.795c-2.613-3.329-5.766-5.925-11.554-6.883
		c-1.14-0.194-2.212-0.345-3.471-0.486V100.409z"/>
	<path fill="#1D1D1B" d="M680.293,69.799c2.41,0.313,5.907,0.472,9.399,0.472c14.071,0,18.478-8.097,18.478-15.25
		c0-10.159-6.769-16.424-19.068-16.424c-2.562,0-6.243,0.322-8.809,0.791V69.799z M680.293,100.409c0,3.868,2.459,5.969,6.972,6.927
		v2.07c-2.508,0-10.681-0.317-13.033-0.317c-2.022,0-10.022,0.317-12.539,0.317v-2.07c4.177-0.804,6.649-2.888,6.649-6.927V42.779
		c0-3.545-1.934-5.788-6.636-6.587v-2.071c2.521,0,10.424,0.313,12.667,0.313c3.686,0,14.109-0.613,18.198-0.613
		c18.018,0,28,7.439,28,20.163c0,10.031-7.452,16.782-18.927,19.567c0,0,2.613,1.515,5.209,4.565
		c3.205,3.73,11.965,16.27,15.492,20.565c3.555,4.3,8.098,9.104,12.928,9.325v1.691c-2.296,0.503-6.044,0.932-8.861,0.932
		c-6.146,0-11.037-2.146-15.762-7.886c-4.084-4.98-11.205-15.567-15.333-20.795c-2.614-3.329-5.757-5.925-11.532-6.883
		c-1.156-0.194-2.217-0.345-3.492-0.486V100.409z"/>
	<path fill="#1D1D1B" d="M382.142,79.199L370.168,51.3l-11.152,27.898H382.142z M334.199,107.322
		c4.759-1.112,7.373-4.194,9.108-8.318l24.079-57.938c1.024-2.397,2.217-7.325,2.217-7.325h6.737c0,0,1.205,4.94,2.208,7.342
		l25.448,58.08c1.815,4,3.779,6.887,8.839,8.159l-0.013,1.93c-2.755,0-11.32-0.159-13.268-0.159c-1.938,0-10.119,0.159-12.87,0.159
		l0.009-1.93c3.704-0.909,4.875-2.794,4.875-4.618c0-1.549-0.641-3.298-1.417-5.112l-5.47-12.477h-28.04l-5.011,12.547
		c-0.561,1.422-1.228,3.431-1.228,4.786c0,2.093,1.095,3.762,5.298,4.874l-0.009,1.93c-2.49,0-9.064-0.159-10.604-0.159
		l-10.892,0.159L334.199,107.322z"/>
	<path fill="#1D1D1B" d="M620.699,79.199L608.717,51.3l-11.144,27.898H620.699z M572.756,107.322
		c4.756-1.112,7.378-4.194,9.104-8.318l24.088-57.938c1.024-2.397,2.229-7.325,2.229-7.325h6.737c0,0,1.192,4.94,2.19,7.342
		l25.457,58.08c1.801,4,3.783,6.887,8.821,8.159l-0.009,1.93c-2.746,0-11.32-0.159-13.281-0.159c-1.92,0-10.097,0.159-12.852,0.159
		v-1.93c3.727-0.909,4.879-2.794,4.879-4.618c0-1.549-0.632-3.298-1.396-5.112l-5.492-12.477h-28.04l-5.016,12.547
		c-0.561,1.422-1.223,3.431-1.223,4.786c0,2.093,1.095,3.762,5.298,4.874v1.93c-2.499,0-9.063-0.159-10.613-0.159l-10.893,0.159
		L572.756,107.322z"/>
	<path fill="#A62131" d="M20.737,10.695h167.895v63.422c0,29.06-10.817,90.685-83.32,136.548c0,0-78.561-32.809-84.574-136.548
		V10.695z"/>
	<path fill="none" stroke="#000000" stroke-width="0.23" d="M20.393,10.527H188.45v63.466c0,29.069-10.83,90.729-83.399,136.623
		c0,0-78.636-32.83-84.658-136.623V10.527z"/>
	<path fill="#FFFFFF" d="M147.814,92.192c0,0-1.497,4.772-8.154-0.133l-22.856-0.552c0,0-2.994,0.962-3.4-2.168
		c0,0,0.547-6.256,0.27-6.803c0,0,0.137-1.766-2.866-1.766c0,0-4.618,0.543-4.755-3.545c0,0-0.808-4.353,5.581-4.208
		c0,0,2.04,0.949,2.176-1.642c0,0-0.269-17.691-0.137-19.042c0,0,0.547-1.625-2.587-1.903c0,0-4.485,0.949-5.033-2.036
		c0,0-0.269-4.49,2.729-4.768c0,0,3.669,0.278,4.349-0.68c0,0,0.821,0.538,0.68-2.711l0.141-5.59c0,0,0.393-1.492,2.711-1.346
		c0,0,4.221,0.269,4.772-0.146c0,0,0.94-1.218,1.219-1.771c0,0,2.181-0.132,2.583,0.415c0,0,3.267,2.177,15.646,1.355
		c0,0,1.907,0,2.305,0.548c0,0,2.322,1.766,3.678-0.133c0,0,2.04-0.415,8.159-0.269c0,0,6.675,1.761,11.289-2.049l1.501,0.274
		c0,0,1.903,3.121,3.263,2.177c0,0,4.084-0.402,4.76,0.41c0,0,1.355,2.027,0.68,7.351c0,0-0.808,2.305,3.135,2.305
		c0,0,4.495-0.821,3.942,3.395c0,0,1.223,4.764-6.251,4.088c0,0-0.958,1.36-0.826,2.313c0,0-0.132,15.501-0.27,17.281
		c0,0-0.132,2.45,3.126,2.309c0,0,4.358-0.282,4.503,3.669c0,0,0.539,5.17-5.726,4.212c0,0-1.903,0.278-2.186,1.501l-0.256,6.803
		c0,0,0.128,3.4-3.674,2.579c-0.543,0-21.218,0.419-22.993-0.124C149.042,91.795,148.08,91.658,147.814,92.192"/>
	<path fill="#FFFFFF" d="M103.872,114.93c0,0,0.954-0.402,1.223-1.073c0,0,2.861-0.278,3.263-0.684l8.985,0.684
		c0,0,8.839,0.671,12.649-2.062c0,0,1.369,0,2.322,0.415c0,0,1.894,0.415,2.437,1.219l5.174-0.137c0,0,2.994,0.962,2.715,2.869
		v2.441c0,0-0.547,4.901,0.812,5.179h3.956c0,0,3.268,1.493,2.856,3.396c0,0,0.137,2.711-2.715,3.263c0,0-2.87,0.812-3.811,0.685
		c0,0-0.958,1.219-1.099,2.715l-0.397,17.824c0,0-0.278,1.902,2.583,1.633c0,0,4.208-0.41,5.439,1.912c0,0,1.091,3.938-1.086,4.618
		l-1.629,0.808l-3.545,0.565c0,0-1.488,0.123-1.629,2.706v4.755c0,0,0.142,3.276-2.45,3.276l-3.81,0.273
		c0,0-0.949,0.804-2.852,0.261c0,0-23.13,0.419-23.947,0.142l-2.724,0.552c0,0-2.989,2.72-5.439,0.671l-1.903-1.497
		c0,0-1.364,0.274-1.899,0.133c-0.547-0.133-25.58,0.278-25.58,0.278s-5.307,0.552-5.709-1.228c0,0-0.68-6.932-0.411-7.762
		c0,0,0-2.031-1.223-2.163c0,0-5.307-0.274-5.444-0.826c0,0-2.861-2.03-2.044-4.066c0,0,0.958-2.732,3.81-3.002
		c0,0,4.353,0.688,4.353-0.538c0,0,0.278-0.817,0.278-2.173c0,0,0.269-16.198,0.132-17.284c0,0,0.406-2.04-1.364-2.04
		c0,0-1.903,0.539-3.122-0.273c0,0-3.267,0.137-3.947-2.451c0,0-0.547-1.629,0.265-3.002c0,0,1.501-2.988,5.854-2.031
		c0,0,2.45,0.685,2.72-1.077l-0.128-6.543c0,0-0.552-1.762,2.853-2.711c0,0,4.353,1.219,5.708-0.953c0,0,1.501-3.003,2.711-0.962
		c0,0,2.596,2.454,9.669,2.193c0,0,12.247-0.962,12.517-0.428c0,0,2.993,0.428,3.806,1.368L103.872,114.93z"/>
	<path fill="#FFFFFF" d="M66.887,92.192c0,0-1.501,4.772-8.167-0.137l-22.853-0.547c0,0-2.993,0.962-3.404-2.172
		c0,0,0.547-6.252,0.265-6.799c0,0,0.146-1.775-2.852-1.775c0,0-4.618,0.556-4.75-3.528c0,0-0.821-4.366,5.572-4.216
		c0,0,2.031,0.949,2.177-1.638c0,0-0.274-17.683-0.146-19.051c0,0,0.556-1.616-2.574-1.895c0,0-4.495,0.945-5.029-2.048
		c0,0-0.278-4.481,2.711-4.759c0,0,3.673,0.278,4.357-0.662c0,0,0.817,0.525,0.68-2.742l0.137-5.571c0,0,0.411-1.497,2.711-1.36
		c0,0,4.229,0.269,4.777-0.137c0,0,0.949-1.218,1.21-1.771c0,0,2.19-0.128,2.596,0.402c0,0,3.258,2.19,15.651,1.369
		c0,0,1.894,0,2.305,0.548c0,0,2.309,1.766,3.669-0.142c0,0,2.04-0.406,8.167-0.269c0,0,6.654,1.766,11.285-2.036l1.492,0.278
		c0,0,1.903,3.117,3.276,2.168c0,0,4.075-0.411,4.759,0.41c0,0,1.364,2.04,0.671,7.351c0,0-0.808,2.309,3.134,2.309
		c0,0,4.486-0.808,3.947,3.391c0,0,1.228,4.764-6.256,4.088c0,0-0.958,1.364-0.826,2.313c0,0-0.132,15.501-0.265,17.281
		c0,0-0.132,2.433,3.13,2.309c0,0,4.353-0.287,4.486,3.674c0,0,0.543,5.165-5.709,4.207c0,0-1.907,0.283-2.185,1.501l-0.265,6.799
		c0,0,0.137,3.404-3.682,2.591c-0.543,0-21.209,0.402-22.985-0.132C68.105,91.795,67.156,91.658,66.887,92.192"/>
	<path d="M147.814,92.192c0,0-1.497,4.772-8.154-0.133l-22.856-0.552c0,0-2.994,0.962-3.4-2.168c0,0,0.547-6.256,0.27-6.803
		c0,0,0.137-1.766-2.866-1.766c0,0-4.618,0.543-4.755-3.545c0,0-0.808-4.353,5.581-4.208c0,0,2.04,0.949,2.176-1.642
		c0,0-0.269-17.691-0.137-19.042c0,0,0.547-1.625-2.587-1.903c0,0-4.485,0.949-5.033-2.036c0,0-0.269-4.49,2.729-4.768
		c0,0,3.669,0.278,4.349-0.68c0,0,0.821,0.538,0.68-2.711l0.141-5.59c0,0,0.393-1.492,2.711-1.346c0,0,4.221,0.269,4.772-0.146
		c0,0,0.94-1.218,1.219-1.771c0,0,2.181-0.132,2.583,0.415c0,0,3.267,2.177,15.646,1.355c0,0,1.907,0,2.305,0.548
		c0,0,2.322,1.766,3.678-0.133c0,0,2.04-0.415,8.159-0.269c0,0,6.675,1.761,11.289-2.049l1.501,0.274c0,0,1.903,3.121,3.263,2.177
		c0,0,4.084-0.402,4.76,0.41c0,0,1.355,2.027,0.68,7.351c0,0-0.808,2.305,3.135,2.305c0,0,4.495-0.821,3.942,3.395
		c0,0,1.223,4.764-6.251,4.088c0,0-0.958,1.36-0.826,2.313c0,0-0.132,15.501-0.27,17.281c0,0-0.132,2.45,3.126,2.309
		c0,0,4.358-0.282,4.503,3.669c0,0,0.539,5.17-5.726,4.212c0,0-1.903,0.278-2.186,1.501l-0.256,6.803c0,0,0.128,3.4-3.674,2.579
		c-0.543,0-21.218,0.419-22.993-0.124C149.042,91.795,148.08,91.658,147.814,92.192"/>
	<path fill="none" stroke="#000000" stroke-width="0.01" d="M147.814,92.196c0,0-1.497,4.773-8.154-0.132l-22.861-0.552
		c0,0-2.993,0.962-3.399-2.172c0,0,0.552-6.256,0.27-6.803c0,0,0.137-1.766-2.861-1.766c0,0-4.622,0.547-4.759-3.541
		c0,0-0.808-4.353,5.581-4.212c0,0,2.04,0.949,2.177-1.638c0,0-0.27-17.691-0.137-19.046c0,0,0.552-1.629-2.583-1.903
		c0,0-4.49,0.949-5.038-2.036c0,0-0.265-4.495,2.729-4.768c0,0,3.669,0.273,4.349-0.68c0,0,0.825,0.538,0.68-2.716l0.146-5.589
		c0,0,0.389-1.493,2.715-1.347c0,0,4.216,0.269,4.764-0.146c0,0,0.94-1.214,1.223-1.766c0,0,2.177-0.137,2.583,0.411
		c0,0,3.263,2.176,15.646,1.355c0,0,1.907,0,2.305,0.547c0,0,2.322,1.766,3.678-0.132c0,0,2.04-0.415,8.159-0.269
		c0,0,6.675,1.762,11.293-2.049l1.501,0.27c0,0,1.902,3.126,3.258,2.181c0,0,4.084-0.401,4.76,0.406c0,0,1.36,2.036,0.684,7.351
		c0,0-0.812,2.313,3.135,2.313c0,0,4.49-0.821,3.938,3.391c0,0,1.223,4.768-6.251,4.088c0,0-0.954,1.36-0.821,2.318
		c0,0-0.132,15.501-0.269,17.276c0,0-0.137,2.451,3.125,2.318c0,0,4.362-0.283,4.503,3.664c0,0,0.534,5.17-5.726,4.212
		c0,0-1.903,0.283-2.186,1.501l-0.26,6.803c0,0,0.128,3.404-3.669,2.583c-0.543,0-21.223,0.415-22.998-0.128
		C149.042,91.795,148.08,91.662,147.814,92.196z"/>
	<path fill="#FFFFFF" d="M122.106,36.144c0,0,0.269,2.724,0.269,3.413c0,0.675-0.401,39.307-0.401,39.307s0.401,2.993-2.172,4.494
		c0,0-0.689,0.265-0.817-1.638l0.265-40.799C119.25,40.92,119.523,35.874,122.106,36.144"/>
	<path fill="none" stroke="#000000" stroke-width="0.012" d="M122.11,36.139c0,0,0.265,2.724,0.265,3.413
		c0,0.68-0.397,39.316-0.397,39.316s0.397,2.993-2.177,4.49c0,0-0.689,0.27-0.826-1.633l0.274-40.808
		C119.25,40.916,119.519,35.87,122.11,36.139z"/>
	<path fill="#FFFFFF" d="M117.62,83.76c0,0,0.27-38.362,0.142-39.042c-0.142-0.671,0.128,0.556,0.128,0.556
		s-0.406-6.675,1.364-9.404c0,0-0.552-2.3-3.678,0.552l-0.137,5.571c0,0,0,3.135-2.853,2.998c0,0-3.267-0.142-4.764,1.355
		c0,0-0.816,2.998,2.309,2.459c0,0,4.901,0,5.174,2.026l-0.273,20.548c0,0,1.09,3.417-2.715,3.417c0,0-4.64-0.291-4.495,2.565
		c0,0,0.958,2.446,4.901,1.638c0,0,2.852,0.534,2.715,3.267v5.166c0,0-0.274,2.053,2.45,2.181h21.223c0,0,1.082,0.132,1.082-1.228
		c0,0-0.132-1.086-1.762-1.086l-17.682-0.274C120.75,87.026,117.89,87.984,117.62,83.76"/>
	<path fill="#FFFFFF" d="M121.704,83.698c0,0-0.547,1.903,1.492,1.505h14.014l3.801,0.826c0,0,3.942-0.962,0-3.135
		c0,0-12.512,0.124-13.598-0.141c0,0-2.587-0.676-3.144-0.812C124.27,81.94,122.923,81.397,121.704,83.698"/>
	<path fill="none" stroke="#000000" stroke-width="0.012" d="M121.7,83.698c0,0-0.547,1.907,1.492,1.51h14.018l3.801,0.826
		c0,0,3.947-0.967,0-3.144c0,0-12.512,0.124-13.603-0.137c0,0-2.587-0.68-3.139-0.817C124.27,81.936,122.918,81.393,121.7,83.698z"
		/>
	<path fill="#FFFFFF" d="M144.958,85.605c0,0-2.583,0-2.45,3.408c0,0,0.273,2.574,2.993,2.574c0,0,2.441-0.402,2.181-3.122
		C147.682,88.466,146.181,85.066,144.958,85.605"/>
	<path fill="#FFFFFF" d="M146.865,84.25c0,0,1.223-1.355,2.044-1.355c0,0,13.603,1.219,15.898-0.411c0,0,2.053-0.406,2.6,0
		c0,0,2.036,1.629,2.036,2.583c0,0-0.132,1.231-2.583,0.534c0,0-15.374,0.15-16.19,0.15C150.671,85.75,146.446,86.695,146.865,84.25
		"/>
	<path fill="none" stroke="#000000" stroke-width="0.012" d="M146.861,84.25c0,0,1.223-1.36,2.044-1.36
		c0,0,13.607,1.219,15.907-0.411c0,0,2.053-0.406,2.601,0c0,0,2.035,1.629,2.035,2.592c0,0-0.132,1.232-2.583,0.534
		c0,0-15.382,0.15-16.198,0.15C150.667,85.755,146.441,86.7,146.861,84.25z"/>
	<path fill="#FFFFFF" d="M148.631,88.66c0,0,0-1.1,1.907-1.1l19.038-0.132c0,0,1.775,0.954,1.775-2.305
		c0,0,0.698-14.83,0.759-31.157c0.022-4.861,0.243-9.96,0.071-14.685c0,0-0.424-2.044-0.971-2.459c0,0,0-2.172,2.318-1.355
		c0,0,2.04,0.137,1.497,3.276l0.141,4.741c0,0-0.411,2.053,3.254,1.501c0,0,3.669,0.552,3.815,1.903c0,0,1.086,2.733-3.259,2.455
		h-3.143c0,0-1.355,0.812-0.949,2.451l-0.406,19.73c0,0-0.274,3.395,2.993,3.267c0,0,3.395-0.141,4.08,0.949
		c0,0,2.327,3.4-2.715,3.126c0,0-3.13-0.141-3.81,0.411c0,0-0.547,0.675-0.954,7.077c0,0,0.278,3.81-2.583,3.391
		c0,0-18.914,0.27-20.68-0.132C150.808,89.614,148.905,90.166,148.631,88.66"/>
	<path fill="#FFFFFF" d="M124.15,34.907l-0.411,43.682c0,0-0.132,2.027,3.268,2.437c0,0,3.942,0.406,4.887,0
		c0,0,2.601-0.141,9.254,0.137c0,0,1.642,1.646,1.779-0.411c0,0,1.077-35.355,0.547-42.72c0,0-0.15-3.126-2.455-3.263
		c0,0-10.34,0.834-11.293,0l-4.084-1.077C125.643,33.693,124.009,33.826,124.15,34.907"/>
	<path fill="#FFFFFF" d="M145.638,37.093c0,0-0.406,20.543-0.27,21.223L145.1,75.587l-0.552,5.991c0,0,0.821,1.223,1.501,0.411
		c0,0,4.353-1.104,7.073-0.676c0,0,8.715,0.808,10.477-0.561c0,0,1.364,0.68,1.762-1.497c0,0,0.539-38.079,0.287-38.759
		c0,0,0.525-5.457,0.251-5.987c0,0-0.119-1.223-2.437-0.141c0,0,0.265,1.095-12.649,0.671
		C150.812,35.04,145.916,34.907,145.638,37.093"/>
	<path fill="#FFFFFF" d="M167.276,36.554l-0.132,42.98c0,0,1.086,3.823,2.852,3.422c0,0,0.265-0.826,0.397-2.186l0.552-40.954
		C170.945,39.817,169.576,33.3,167.276,36.554"/>
	<path fill="none" stroke="#000000" stroke-width="0.012" d="M167.271,36.55l-0.132,42.989c0,0,1.09,3.824,2.856,3.422
		c0,0,0.27-0.826,0.402-2.186l0.547-40.962C170.945,39.812,169.576,33.296,167.271,36.55z"/>
	<path d="M150.569,49.424c-0.406-1.086,2.313-1.223,2.313-1.223l1.364,0.27c0.954-0.132,1.907,0.278,1.907,0.278
		c0.95,1.493-0.684,2.305-0.684,2.305l-0.543,1.775c-0.141,1.501,0,14.424,0,14.424c0.274,0.671,1.36,1.89,1.36,1.89
		c0,1.231-1.501,0.962-1.501,0.962l-3.938,0.137c-1.228-0.137-0.821-1.501-0.821-1.501c1.36-0.68,1.771-3.134,1.771-3.134V52.144
		L150.569,49.424z"/>
	<path d="M132.344,51.322c0.132,3.002,0.132,7.082,0.132,7.082c2.592,2.044,4.08-0.821,4.08-0.821c3.395-3.259,0-6.261-0.539-7.069
		c-0.552-0.821-3.271-0.141-3.271-0.141L132.344,51.322z M132.208,62.077l-0.269,4.216l1.214,2.036
		c0.826,1.086-0.539,1.912-0.539,1.912l-4.353-0.406c-0.808-0.419,0-1.775,0-1.775c1.09-0.671,1.227-2.45,1.227-2.45l-0.137-7.89
		l0.137-5.713c0-0.685-1.086-1.898-1.086-1.898c-0.949-0.137-0.68-1.36-0.68-1.36c0.27-0.684,2.574-0.278,2.574-0.278h5.722
		c5.444,1.771,4.627,5.717,4.627,5.717c0.411,3.938-3.806,5.581-3.806,5.581l-0.283,2.177l3.952,6.248
		c0.68,0.547,0.547,1.099,0.547,1.099c-0.547,1.497-2.729,0-2.729,0l-4.892-7.625C133.024,61.119,132.208,62.077,132.208,62.077"/>
	<path d="M103.872,114.93c0,0,0.954-0.402,1.223-1.073c0,0,2.861-0.278,3.263-0.684l8.985,0.684c0,0,8.839,0.671,12.649-2.062
		c0,0,1.369,0,2.322,0.415c0,0,1.894,0.415,2.437,1.219l5.174-0.137c0,0,2.994,0.962,2.715,2.869v2.441c0,0-0.547,4.901,0.812,5.179
		h3.956c0,0,3.268,1.493,2.856,3.396c0,0,0.137,2.711-2.715,3.263c0,0-2.87,0.812-3.811,0.685c0,0-0.958,1.219-1.099,2.715
		l-0.397,17.824c0,0-0.278,1.902,2.583,1.633c0,0,4.208-0.41,5.439,1.912c0,0,1.091,3.938-1.086,4.618l-1.629,0.808l-3.545,0.565
		c0,0-1.488,0.123-1.629,2.706v4.755c0,0,0.142,3.276-2.45,3.276l-3.81,0.273c0,0-0.949,0.804-2.852,0.261
		c0,0-23.13,0.419-23.947,0.142l-2.724,0.552c0,0-2.989,2.72-5.439,0.671l-1.903-1.497c0,0-1.364,0.274-1.899,0.133
		c-0.547-0.133-25.58,0.278-25.58,0.278s-5.307,0.552-5.709-1.228c0,0-0.68-6.932-0.411-7.762c0,0,0-2.031-1.223-2.163
		c0,0-5.307-0.274-5.444-0.826c0,0-2.861-2.03-2.044-4.066c0,0,0.958-2.732,3.81-3.002c0,0,4.353,0.688,4.353-0.538
		c0,0,0.278-0.817,0.278-2.173c0,0,0.269-16.198,0.132-17.284c0,0,0.406-2.04-1.364-2.04c0,0-1.903,0.539-3.122-0.273
		c0,0-3.267,0.137-3.947-2.451c0,0-0.547-1.629,0.265-3.002c0,0,1.501-2.988,5.854-2.031c0,0,2.45,0.685,2.72-1.077l-0.128-6.543
		c0,0-0.552-1.762,2.853-2.711c0,0,4.353,1.219,5.708-0.953c0,0,1.501-3.003,2.711-0.962c0,0,2.596,2.454,9.669,2.193
		c0,0,12.247-0.962,12.517-0.428c0,0,2.993,0.428,3.806,1.368L103.872,114.93z"/>
	<path fill="none" stroke="#000000" stroke-width="0.01" d="M103.872,114.762c0,0,0.944-0.397,1.223-1.077
		c0,0,2.856-0.278,3.263-0.685l8.98,0.685c0,0,8.843,0.68,12.653-2.053c0,0,1.369,0,2.322,0.415c0,0,1.898,0.41,2.433,1.214
		l5.183-0.133c0,0,2.989,0.963,2.711,2.865v2.446c0,0-0.543,4.9,0.817,5.17h3.951c0,0,3.263,1.501,2.861,3.404
		c0,0,0.137,2.711-2.72,3.263c0,0-2.865,0.812-3.806,0.68c0,0-0.958,1.223-1.104,2.72l-0.402,17.828c0,0-0.273,1.894,2.583,1.629
		c0,0,4.212-0.401,5.448,1.907c0,0,1.09,3.942-1.086,4.627l-1.633,0.812l-3.545,0.552c0,0-1.492,0.133-1.625,2.706v4.773
		c0,0,0.132,3.262-2.451,3.262l-3.81,0.274c0,0-0.954,0.812-2.856,0.27c0,0-23.13,0.41-23.947,0.128l-2.729,0.552
		c0,0-2.984,2.724-5.435,0.671l-1.907-1.497c0,0-1.36,0.274-1.898,0.146c-0.548-0.146-25.576,0.273-25.576,0.273
		s-5.312,0.548-5.718-1.228c0,0-0.675-6.94-0.406-7.762c0,0,0-2.031-1.228-2.168c0,0-5.302-0.269-5.443-0.816
		c0,0-2.856-2.044-2.04-4.079c0,0,0.958-2.729,3.815-3.003c0,0,4.349,0.698,4.349-0.543c0,0,0.278-0.812,0.278-2.163
		c0,0,0.269-16.198,0.137-17.285c0,0,0.406-2.048-1.369-2.048c0,0-1.903,0.543-3.126-0.266c0,0-3.263,0.133-3.942-2.45
		c0,0-0.552-1.629,0.269-2.998c0,0,1.493-2.993,5.85-2.039c0,0,2.45,0.688,2.724-1.077l-0.137-6.539c0,0-0.547-1.762,2.857-2.72
		c0,0,4.353,1.228,5.713-0.949c0,0,1.492-2.997,2.711-0.967c0,0,2.596,2.455,9.665,2.194c0,0,12.251-0.963,12.517-0.424
		c0,0,2.998,0.424,3.81,1.373L103.872,114.762z"/>
	<path fill="#FFFFFF" d="M107.408,168.396c0,0,1.638-0.826,2.729-0.543c1.091,0.27,17.002-0.133,17.002-0.133
		s6.936,0.539,8.031-0.424l1.62-0.538c0,0,0.685-0.812,0.685-1.895c0-1.099,0.137-4.772,0.137-4.772l0.415-1.351
		c0,0-0.141-1.36,0-37.691c0,0,0.534-2.844-1.236-4.622c0,0,0-1.078,0.543-0.949c0.552,0.146,0.278,0.146,0.278,0.146
		s2.446-0.693,2.848,0.26c0,0,1.1,3.254,0.142,5.166c0,0-0.274,3.951,1.784,3.951c0,0,0.803,0.821,2.437,0.406
		c0,0,3.536,0.415,3.536,1.492c0,0,0,2.459-2.45,2.049l-3.271,0.265c0,0-2.177,0.42-1.898,2.994
		c0.278,2.587-0.137,21.09-0.137,21.09s0,2.186,3.408,2.049c0,0,4.212-0.142,4.212,1.077c0,0,1.086,2.72-1.903,2.861
		c0,0-5.717-0.142-5.302,1.487c0,0-0.415,3.819-0.689,4.49c0,0,0.556,3.135-0.137,3.683c0,0-0.402,1.761-4.071,1.492
		c0,0-23.395-0.133-27.073,0.137C109.046,170.572,106.865,170.303,107.408,168.396"/>
	<path fill="#FFFFFF" d="M103.201,165.812c0,0,2.309,0.402,2.309,2.583c0,2.172,0.137,3.399-1.231,3.669
		c-1.355,0.273-2.848-0.128-3.25-1.895C100.609,168.396,101.289,166.215,103.201,165.812"/>
	<path fill="#FFFFFF" d="M105.916,164.727c0,0,2.446-1.643,3.399-1.359c0,0,12.375,0.808,16.194,0.141
		c3.806-0.685,1.492-0.141,1.492-0.141s3.268,0,4.212-1.232c0,0,0.958-0.261,1.501,0.688l2.031,2.186c0,0,0.154,1.347-2.168,1.21
		c0,0-22.181,0-22.852,0.137C109.726,166.355,105.51,167.026,105.916,164.727"/>
	<path fill="none" stroke="#000000" stroke-width="0.012" d="M105.912,164.727c0,0,2.446-1.643,3.399-1.364
		c0,0,12.384,0.812,16.199,0.146c3.811-0.688,1.492-0.146,1.492-0.146s3.271,0,4.217-1.236c0,0,0.954-0.256,1.501,0.693l2.031,2.189
		c0,0,0.15,1.352-2.167,1.21c0,0-22.181,0-22.861,0.142C109.722,166.36,105.505,167.031,105.912,164.727z"/>
	<path fill="#FFFFFF" d="M73.678,116.431c0,0,0.954,0,0.816,1.634l-0.278,41.081c0,0,0.415,2.729-1.898,4.49
		c0,0-1.232,1.492-1.232-0.812l0.556-41.902C71.642,120.921,71.771,117.79,73.678,116.431"/>
	<path fill="none" stroke="#000000" stroke-width="0.012" d="M73.678,116.427c0,0,0.954,0,0.825,1.633l-0.287,41.091
		c0,0,0.415,2.729-1.903,4.49c0,0-1.236,1.492-1.236-0.812l0.556-41.907C71.633,120.921,71.766,117.786,73.678,116.427z"/>
	<path fill="#FFFFFF" d="M71.501,116.704c0,0-1.634,2.998-1.497,3.683l-0.137,9.104c0,0-0.137,5.85,0,6.534
		c0.137,0.676-0.137,17.819-0.137,17.819s-0.137,3.258,0,4.353v7.343c0,0-0.273,3.271,2.172,2.441c0,0,23.947-0.538,25.448-0.124
		c0,0,2.168,0.402,1.364,1.492c0,0,0,0.959-1.51,0.681c0,0-11.289,1.081-21.488,0.68c0,0-6.804,0.401-7.219-0.401
		c0,0-1.082-0.138-1.082-4.089c0,0,0-3.664-0.265-4.345c0,0,0.265-1.929-3.135-2.322c0,0-4.76,0.821-4.896-2.035
		c0,0,0.676-2.039,5.307-1.774c0,0,3.399,0.547,2.724-2.181l0.401-20.12c0,0,0.419-3.554-1.903-3.695c0,0-2.167-0.11-2.861,0.142
		c0,0-3.942,0-3.669-2.296c0,0,1.36-2.455,5.307-1.907c0,0,2.989,0.539,3.125-2.853c0,0-0.137-6.944,1.492-7.209
		C69.046,115.623,72.455,115.746,71.501,116.704"/>
	<path fill="#FFFFFF" d="M75.576,161.729c0,0,1.907,2.031,5.042,1.912l18.485,0.265c0,0,2.053,0.146,1.925,1.223
		c0,0-0.291,1.63-2.728,1.087l-22.314-0.27l-2.455,0.149c0,0-1.633-0.282,0.962-3.408L75.576,161.729z"/>
	<path fill="none" stroke="#000000" stroke-width="0.012" d="M75.571,161.725c0,0,1.908,2.035,5.047,1.911l18.49,0.27
		c0,0,2.049,0.142,1.925,1.223c0,0-0.287,1.634-2.724,1.096l-22.327-0.27l-2.455,0.141c0,0-1.629-0.277,0.962-3.412L75.571,161.725z
		"/>
	<path fill="#FFFFFF" d="M132.715,159.949c0,0,1.633,3.135,2.45,3.563c0,0,1.497,1.753,1.09-1.373l0.27-39.184
		c0,0-0.411-1.364,0-3.532l-1.629-2.993c0,0-1.775-1.359-1.775,0.812l-0.27,41.771L132.715,159.949z"/>
	<path fill="none" stroke="#000000" stroke-width="0.012" d="M132.711,159.954c0,0,1.638,3.13,2.459,3.562
		c0,0,1.497,1.758,1.091-1.377l0.269-39.192c0,0-0.411-1.355,0-3.523l-1.633-2.997c0,0-1.779-1.355-1.779,0.816l-0.27,41.774
		L132.711,159.954z"/>
	<path fill="#FFFFFF" d="M102.517,141.322c0,0,0.137,3.254-0.278,6.376c-0.221,1.726,0.552,9.673-0.137,13.748
		c0,0-0.124,1.364-2.994,0.146c0,0-17.408,0.401-17.951-0.146c0,0-4.759,0.146-5.17-2.309c0,0,0.68-18.637,0.274-19.329
		c0,0-0.274-10.199,0-11.148c0,0,0.406-9.386,0.137-10.473c0,0,0.137-2.177-0.274-3.271c0,0,0-1.359,2.318-0.547
		c0,0,0.804,1.501,5.298,0.834c0,0,3.271,0.539,6.402,0.128c0,0,6.932-0.543,8.707,0c0,0,2.724-0.543,3.527,2.459l-0.137,8.429
		l0.812,2.72l0.958-0.676l0.402-2.044l0.137-8.98c0,0,0.543-1.638,2.729-1.907c0,0,3.399-0.415,3.952-0.128
		c0.543,0.261,7.876,0.667,9.929,0.261c2.035-0.406,2.437,1.359,8.57-1.762c0,0,1.633,0.137,1.633,1.214c0,0-0.556,11.581,0,13.744
		c0,0,0,21.219-0.424,22.716l0.278,6.803c0,0,0.27,2.994-4.481,3.268c0,0,2.994,0.41-15.792-0.133c0,0-2.989-0.141-6.252,1.352
		c0,0-0.68-0.133-0.68-1.898c0,0,0.539-6.389,0-12.658l-0.265-6.936L102.517,141.322z"/>
	<path d="M90.269,131.671c0,0,0.411,10.062,0,11.422l-0.128,2.182c0,0,0.539,1.487,1.355,2.039c0,0,0.684,1.898-0.954,1.767
		c0,0-3.395-0.274-4.212-0.146c0,0-1.912,0,0-2.434c0,0,0.68-0.967,0.539-3.408c0,0,0-11.422,0.278-12.097
		c0,0,0.269-1.506-0.685-1.916l-1.638,0.141l-2.031,1.903c0,0-0.415,2.049-1.369-0.128v-1.1l1.232-3.263l0.817-0.142
		c0,0,1.218,0.817,2.305,1.1h6.401l2.31-1.1c0,0,0.949,0.142,0.688,1.364c0,0,0.397,3.14-1.369,3.537c0,0-1.09-0.397-1.629-1.903
		C92.181,129.49,90.411,128.546,90.269,131.671"/>
	<path d="M120.331,127.998c0,0-5.161-0.411-5.289,5.165c0,0-0.561,3.819,5.161,6.27c0,0,4.221,2.031,3.938,4.614
		c0,0-0.543,4.627-5.033,2.317c0,0-2.172-1.095-2.027-2.317c0,0-0.693-1.501-1.505-1.224c0,0-0.958,0.266-0.534,4.76
		c0,0,0,1.771,2.04,0l1.073,0.278c0,0,3.678,2.993,6.799-0.688c0,0,3.409-3.126,0.954-6.932c0,0-1.766-2.711-4.892-4.075
		c0,0-2.994-1.373-3.669-3.683c0,0,0.954-4.088,4.618-1.911c0,0,1.364,1.634,2.176,1.911c0,0,1.091,0,0.812-2.459l-0.256-2.026
		c0,0-0.273-1.515-2.185,0C122.512,127.998,120.742,128.669,120.331,127.998"/>
	<path d="M101.572,134.108c-0.141,0.685-1.1,4.494-1.1,4.494l0.817,1.373c0,0,2.181,0.124,2.993,0.124
		c0.808,0,0.954-0.667,0.954-1.36c0-0.675-1.497-4.755-1.497-4.755l-0.688-0.816L101.572,134.108z M103.739,125.133
		c0.949,0.693,1.086,2.049,1.086,2.049c2.719,7.205,5.038,17.69,5.038,17.69c0.675,1.347,1.903,2.441,1.903,2.441
		c2.313,0.812,0,1.488,0,1.488c-0.954,0.415-4.075-0.124-4.075-0.124c-1.643-0.291-0.967-0.821-0.967-0.821
		c0.688-0.68,0.141-3.408,0.141-3.408c-0.141-1.077-1.355-2.852-1.355-2.852c-0.543-0.274-1.497,0.949-1.497,0.949
		s-1.492,0.547-1.638,0c-0.137-0.553-1.086-1.068-1.086-1.068c-1.634,0-2.309,4.057-2.309,4.057c0.949,3.404,0,2.853,0,2.853
		c-0.812,1.1-3.404,0.291-3.404,0.291c-1.223-0.291-0.397-1.24-0.397-1.24c1.488-0.261,1.894-1.903,1.894-1.903
		c0.684-0.949,5.029-18.631,5.029-18.631C102.521,126.082,102.786,124.453,103.739,125.133"/>
	<path d="M66.887,92.192c0,0-1.501,4.772-8.167-0.137l-22.853-0.547c0,0-2.993,0.962-3.404-2.172c0,0,0.547-6.252,0.265-6.799
		c0,0,0.146-1.775-2.852-1.775c0,0-4.618,0.556-4.75-3.528c0,0-0.821-4.366,5.572-4.216c0,0,2.031,0.949,2.177-1.638
		c0,0-0.274-17.683-0.146-19.051c0,0,0.556-1.616-2.574-1.895c0,0-4.495,0.945-5.029-2.048c0,0-0.278-4.481,2.711-4.759
		c0,0,3.673,0.278,4.357-0.662c0,0,0.817,0.525,0.68-2.742l0.137-5.571c0,0,0.411-1.497,2.711-1.36c0,0,4.229,0.269,4.777-0.137
		c0,0,0.949-1.218,1.21-1.771c0,0,2.19-0.128,2.596,0.402c0,0,3.258,2.19,15.651,1.369c0,0,1.894,0,2.305,0.548
		c0,0,2.309,1.766,3.669-0.142c0,0,2.04-0.406,8.167-0.269c0,0,6.654,1.766,11.285-2.036l1.492,0.278c0,0,1.903,3.117,3.276,2.168
		c0,0,4.075-0.411,4.759,0.41c0,0,1.364,2.04,0.671,7.351c0,0-0.808,2.309,3.134,2.309c0,0,4.486-0.808,3.947,3.391
		c0,0,1.228,4.764-6.256,4.088c0,0-0.958,1.364-0.826,2.313c0,0-0.132,15.501-0.265,17.281c0,0-0.132,2.433,3.13,2.309
		c0,0,4.353-0.287,4.486,3.674c0,0,0.543,5.165-5.709,4.207c0,0-1.907,0.283-2.185,1.501l-0.265,6.799c0,0,0.137,3.404-3.682,2.591
		c-0.543,0-21.209,0.402-22.985-0.132C68.105,91.795,67.156,91.658,66.887,92.192"/>
	<path fill="none" stroke="#000000" stroke-width="0.01" d="M66.887,92.196c0,0-1.501,4.773-8.167-0.137l-22.857-0.547
		c0,0-2.993,0.962-3.404-2.176c0,0,0.552-6.252,0.269-6.799c0,0,0.142-1.771-2.856-1.771c0,0-4.618,0.556-4.75-3.528
		c0,0-0.817-4.371,5.576-4.221c0,0,2.031,0.949,2.172-1.633c0,0-0.274-17.691-0.142-19.055c0,0,0.556-1.621-2.578-1.895
		c0,0-4.495,0.945-5.029-2.053c0,0-0.278-4.481,2.715-4.755c0,0,3.669,0.273,4.357-0.671c0,0,0.817,0.534,0.676-2.733l0.141-5.576
		c0,0,0.406-1.497,2.711-1.355c0,0,4.225,0.265,4.772-0.142c0,0,0.954-1.214,1.214-1.766c0,0,2.185-0.132,2.596,0.402
		c0,0,3.254,2.186,15.651,1.364c0,0,1.894,0,2.305,0.547c0,0,2.309,1.766,3.669-0.141c0,0,2.044-0.406,8.167-0.265
		c0,0,6.658,1.757,11.285-2.04l1.497,0.278c0,0,1.903,3.117,3.271,2.167c0,0,4.075-0.406,4.768,0.406c0,0,1.355,2.044,0.667,7.351
		c0,0-0.812,2.318,3.13,2.318c0,0,4.495-0.816,3.947,3.387c0,0,1.228,4.768-6.251,4.088c0,0-0.962,1.364-0.826,2.318
		c0,0-0.137,15.501-0.265,17.276c0,0-0.137,2.442,3.126,2.318c0,0,4.353-0.292,4.49,3.673c0,0,0.539,5.161-5.713,4.203
		c0,0-1.903,0.287-2.181,1.501l-0.27,6.799c0,0,0.146,3.408-3.678,2.596c-0.543,0-21.214,0.397-22.989-0.137
		C68.105,91.795,67.156,91.662,66.887,92.196z"/>
	<path fill="#FFFFFF" d="M41.174,36.152c0,0,0.274,2.715,0.274,3.395c0,0.68-0.415,39.316-0.415,39.316s0.415,3.002-2.176,4.49
		c0,0-0.676,0.278-0.817-1.625l0.278-40.812C38.317,40.916,38.587,35.878,41.174,36.152"/>
	<path fill="none" stroke="#000000" stroke-width="0.012" d="M41.179,36.148c0,0,0.273,2.715,0.273,3.395s-0.415,39.32-0.415,39.32
		s0.415,3.002-2.181,4.499c0,0-0.676,0.273-0.817-1.629l0.269-40.817C38.309,40.916,38.583,35.878,41.179,36.148z"/>
	<path fill="#FFFFFF" d="M36.684,83.76c0,0,0.265-38.362,0.137-39.047c-0.137-0.671,0.128,0.552,0.128,0.552
		s-0.397-6.658,1.368-9.386c0,0-0.547-2.313-3.678,0.539l-0.124,5.581c0,0,0,3.13-2.865,2.993c0,0-3.267-0.142-4.768,1.364
		c0,0-0.812,2.989,2.309,2.45c0,0,4.905,0,5.174,2.026l-0.27,20.548c0,0,1.091,3.399-2.724,3.399c0,0-4.623-0.261-4.49,2.596
		c0,0,0.954,2.45,4.905,1.629c0,0,2.852,0.547,2.728,3.254v5.183c0,0-0.287,2.044,2.433,2.168h21.227c0,0,1.086,0.137,1.086-1.228
		c0,0-0.137-1.073-1.762-1.073l-17.678-0.283C39.823,87.026,36.949,87.98,36.684,83.76"/>
	<path fill="#FFFFFF" d="M40.357,84.038c0,0-0.539,1.912,1.492,1.492h14.013l3.81,0.812c0,0,3.956-0.949,0-3.13
		c0,0-12.517,0.146-13.607-0.128c0,0-2.579-0.68-3.125-0.817C42.94,82.267,41.576,81.729,40.357,84.038"/>
	<path fill="none" stroke="#000000" stroke-width="0.012" d="M40.353,84.033c0,0-0.539,1.92,1.492,1.492h14.018l3.815,0.821
		c0,0,3.956-0.949,0-3.135c0,0-12.521,0.146-13.612-0.137c0,0-2.583-0.676-3.13-0.808C42.936,82.267,41.571,81.724,40.353,84.033z"
		/>
	<path fill="#FFFFFF" d="M63.625,85.949c0,0-2.591,0-2.455,3.382c0,0,0.273,2.601,2.989,2.601c0,0,2.451-0.424,2.186-3.13
		C66.344,88.801,64.843,85.393,63.625,85.949"/>
	<path fill="#FFFFFF" d="M65.523,84.576c0,0,1.219-1.36,2.044-1.36c0,0,13.598,1.228,15.912-0.402c0,0,2.048-0.406,2.583,0
		c0,0,2.04,1.629,2.04,2.579c0,0-0.133,1.236-2.574,0.556c0,0-15.386,0.128-16.194,0.128C69.333,86.077,65.112,87.026,65.523,84.576
		"/>
	<path fill="none" stroke="#000000" stroke-width="0.012" d="M65.519,84.576c0,0,1.223-1.364,2.044-1.364
		c0,0,13.603,1.232,15.917-0.397c0,0,2.053-0.41,2.587,0c0,0,2.04,1.629,2.04,2.583c0,0-0.132,1.236-2.574,0.552
		c0,0-15.386,0.133-16.203,0.133C69.329,86.082,65.108,87.031,65.519,84.576z"/>
	<path fill="#FFFFFF" d="M67.7,88.66c0,0,0-1.082,1.894-1.082l19.06-0.142c0,0,1.762,0.94,1.762-2.313
		c0,0,0.697-14.834,0.759-31.161c0.026-4.856,0.238-9.956,0.053-14.68c0,0-0.406-2.035-0.949-2.455c0,0,0-2.176,2.322-1.351
		c0,0,2.026,0.128,1.487,3.254l0.133,4.764c0,0-0.406,2.04,3.267,1.497c0,0,3.669,0.543,3.801,1.903c0,0,1.1,2.729-3.25,2.45h-3.125
		c0,0-1.364,0.812-0.958,2.451L93.55,71.517c0,0-0.283,3.399,2.993,3.276c0,0,3.399-0.141,4.071,0.945c0,0,2.322,3.404-2.715,3.13
		c0,0-3.13-0.141-3.811,0.402c0,0-0.538,0.693-0.949,7.077c0,0,0.27,3.81-2.587,3.399c0,0-18.91,0.265-20.671-0.137
		C69.881,89.609,67.969,90.157,67.7,88.66"/>
	<path fill="#FFFFFF" d="M43.205,34.916l-0.397,43.673c0,0-0.137,2.027,3.263,2.437c0,0,3.952,0.411,4.896,0
		c0,0,2.578-0.132,9.249,0.142c0,0,1.634,1.625,1.767-0.406c0,0,1.09-35.378,0.547-42.72c0,0-0.132-3.126-2.455-3.263
		c0,0-10.331,0.812-11.285,0l-4.075-1.091C44.715,33.688,43.073,33.817,43.205,34.916"/>
	<path fill="#FFFFFF" d="M86.331,36.55l-0.133,42.993c0,0,1.091,3.819,2.866,3.413c0,0,0.269-0.821,0.402-2.19l0.552-40.954
		C90.018,39.812,88.653,33.282,86.331,36.55"/>
	<path fill="none" stroke="#000000" stroke-width="0.012" d="M86.331,36.55l-0.133,42.993c0,0,1.091,3.819,2.866,3.413
		c0,0,0.269-0.821,0.402-2.19l0.552-40.954C90.018,39.812,88.653,33.282,86.331,36.55"/>
	<path fill="none" stroke="#000000" stroke-width="0.012" d="M86.331,36.55l-0.133,42.993c0,0,1.091,3.819,2.866,3.413
		c0,0,0.269-0.821,0.402-2.19l0.552-40.954C90.018,39.812,88.653,33.282,86.331,36.55z"/>
	<path fill="#FFFFFF" d="M64.715,36.916c0,0-0.41,20.539-0.282,21.228l-0.256,17.28l-0.552,5.969c0,0,0.808,1.241,1.492,0.419
		c0,0,4.358-1.082,7.078-0.68c0,0,8.71,0.821,10.472-0.543c0,0,1.36,0.676,1.771-1.501c0,0,0.539-38.084,0.269-38.768
		c0,0,0.548-5.435,0.27-5.974c0,0-0.137-1.236-2.437-0.155c0,0,0.265,1.1-12.654,0.693C69.885,34.885,64.984,34.744,64.715,36.916"
		/>
	<path d="M60.512,49.499l-1.231,2.596c0,0-2.98,13.188-4.609,15.903c0,0-0.274,2.729-2.587,0.547c0,0-5.311-16.729-5.581-17.276
		l-1.771-1.223c0,0-1.073-1.497,0.821-1.629l5.033,0.133c0,0,1.629,1.355-0.543,2.87c0,0,0.27,2.172,3.126,10.459
		c0,0,0.812,3.13,1.766,0.816l2.724-9.66l-0.817-2.856c0,0-0.821-1.36,0.411-1.492C57.254,48.687,60.11,48.417,60.512,49.499"/>
	<path d="M68.41,51.68L68.265,66.1l-0.397,1.086c0,0-1.364,1.762-0.415,1.903c0,0-1.214,0.821,8.702,0.954
		c0,0,3.819,0.676,2.861-4.221c0,0-0.406-1.766-1.775,0.821c0,0-0.406,2.167-5.293,1.492c0,0-1.09-0.949-1.09-2.035v-5.991
		c0,0-0.146-1.501,2.172-1.347c0,0,2.583,1.625,2.994,0.936c0,0,0.949-2.168,0-3.532c0,0-1.228-0.128-1.36,0.415
		c0,0-0.817,1.625-3.13,0.671c0,0-1.086-2.172-0.406-3.943c0,0-0.269-3.404,2.044-3.126c0,0,2.72,0.539,2.984,1.364
		c0,0,0.68,1.638,1.369-0.269l-0.689-2.322c0,0-0.397-0.954-1.082-0.68c0,0-4.627,0.68-5.179,0.128L66.9,48.819
		c0,0-0.539,1.364,1.1,2.036C68,50.854,68.41,51.132,68.41,51.68"/>
</g>
</svg>
