<?xml version="1.0" encoding="utf-8"?>
<!-- Generator: Adobe Illustrator 16.0.3, SVG Export Plug-In . SVG Version: 6.00 Build 0)  -->
<!DOCTYPE svg PUBLIC "-//W3C//DTD SVG 1.1//EN" "http://www.w3.org/Graphics/SVG/1.1/DTD/svg11.dtd">
<svg version="1.1" id="Layer_1" xmlns="http://www.w3.org/2000/svg" xmlns:xlink="http://www.w3.org/1999/xlink" x="0px" y="0px"
	 width="1280px" height="800px" viewBox="0 0 1280 800" enable-background="new 0 0 1280 800" xml:space="preserve">
<g>
	<defs>
		<rect id="SVGID_1_" x="61.036" y="194.599" width="1158.879" height="411.669"/>
	</defs>
	<clipPath id="SVGID_2_">
		<use xlink:href="#SVGID_1_"  overflow="visible"/>
	</clipPath>
	<path clip-path="url(#SVGID_2_)" fill="#003DA6" d="M267.947,302.94l-0.064,0.021h0.106l-0.042-0.01
		C267.947,302.951,267.947,302.951,267.947,302.94"/>
	<path clip-path="url(#SVGID_2_)" fill="#003DA6" d="M195.668,463.104c0,0,0,0-0.011,0l0.064,0.043
		c-0.021-0.021-0.053-0.064-0.075-0.086L195.668,463.104z"/>
	<path clip-path="url(#SVGID_2_)" fill="#003DA6" d="M192.656,341.548l-0.038,0.064c0.021-0.032,0.048-0.053,0.069-0.085
		l-0.032,0.032V341.548z"/>
	<path clip-path="url(#SVGID_2_)" fill="#003DA6" d="M345.146,337.807l-0.08-0.053c0.032,0.032,0.064,0.064,0.09,0.106l-0.026-0.053
		H345.146"/>
	<path clip-path="url(#SVGID_2_)" fill="#003DA6" d="M475.878,375.682l-73.974-5.367l64.266-37.024c0,0-5.701-20.648-21.402-44.325
		l-68.958,27.258l41.817-61.232c0,0-14.091-16.142-38.512-30.669l-50.297,54.495l11.1-73.336c0,0-19.697-8.406-47.997-10.903
		l-21.668,70.924l-21.817-70.871c0,0-21.408,0.967-47.991,11.01l11.264,73.293l-50.419-54.388c0,0-18.857,10.159-38.443,30.744
		l41.95,61.147l-69.027-27.12c0,0-12.577,17.343-21.296,44.377l64.053,36.727l-73.639,5.398c0,0-3.853,21.084,0,49.24l73.963,5.419
		l-64.287,36.961c0,0,5.68,20.658,21.36,44.356l68.99-27.226l-41.87,61.211c0,0,14.081,16.152,38.496,30.689l50.345-54.451
		l-11.168,73.304c0,0,19.697,8.438,48.001,10.945l21.721-70.902l21.764,70.882c0,0,21.402-0.936,47.985-10.967l-11.206-73.305
		l50.372,54.409c0,0,18.884-10.138,38.48-30.69l-41.907-61.189l68.99,27.162c0,0,12.603-17.321,21.344-44.356l-64.314-36.938
		l73.963-5.483C475.91,424.89,479.73,403.832,475.878,375.682 M365.97,419.831c23.682,16.046,35.903,46.971,60.451,50.414
		c-24.309,11.03-50.839-11.073-78.331-10.861c14.368,24.719,11.971,57.896,32.593,71.646c-26.674-0.638-40.993-32.029-65.844-43.782
		c2.205,28.522-14.336,57.363-1.732,78.702c-23.756-12.136-23.039-46.651-40.339-68.012c-10.372,26.652-37.795,45.462-35.68,70.159
		c-16.153-21.254-0.526-52.029-6.859-78.788c-20.903,19.511-53.767,24.591-62.582,47.757c-5.329-26.163,22.104-47.119,28.013-73.963
		c-27.316,8.502-59.112-1.19-77.109,15.855c6.541-25.866,40.351-32.858,57.316-54.495c-28.294-4.165-52.736-26.7-76.349-19.154
		c17.115-20.468,50.611-12.094,75.281-24.208c-23.682-16.046-35.935-46.96-60.483-50.393c24.298-11.031,50.85,11.052,78.331,10.818
		c-14.378-24.718-11.993-57.874-32.625-71.625c26.668,0.616,41.015,32.019,65.876,43.74c-2.226-28.512,14.298-57.364,1.679-78.703
		c23.767,12.125,23.055,46.652,40.382,67.991c10.361-26.652,37.757-45.473,35.647-70.169c16.158,21.222,0.547,52.019,6.886,78.767
		c0.027,0.011,0.059,0.032,0.09,0.042c20.924-19.5,53.788-24.538,62.625-47.693c5.313,26.153-22.136,47.088-28.055,73.931
		c27.316-8.491,59.112,1.222,77.109-15.813c-6.536,25.866-40.361,32.837-57.332,54.442c28.289,4.208,52.72,26.748,76.333,19.224
		C424.136,416.111,390.65,407.716,365.97,419.831"/>
	<path clip-path="url(#SVGID_2_)" fill="#003DA6" d="M348.084,459.363c0.011,0,0.011,0,0.011,0l0.021-0.064
		c-0.021,0.021-0.042,0.064-0.053,0.085L348.084,459.363z"/>
	<path clip-path="url(#SVGID_2_)" fill="#003DA6" d="M296.863,416.834c0,25.887-9.389,38.002-26.472,38.108
		c-17.088-0.106-26.487-12.222-26.487-38.108v-71.588h-32.726V414.9c0,44.526,22.104,65.95,59.213,66.438
		c37.093-0.488,59.197-21.912,59.197-66.438v-69.654h-32.726V416.834z"/>
	<path clip-path="url(#SVGID_2_)" fill="#003DA6" d="M577.652,362.079v45.807c0,13.837,5.319,20.829,14.437,20.829
		c9.469,0,14.681-6.631,14.681-20.829v-45.807h17.976v44.744c0,24.612-12.417,36.345-33.241,36.345
		c-20.132,0-31.843-11.265-31.843-36.6v-44.489H577.652z"/>
	<path clip-path="url(#SVGID_2_)" fill="#003DA6" d="M707.837,411.308c-0.361-9.58-0.712-21.057-0.712-32.778h-0.245
		c-2.593,10.181-5.908,21.541-8.979,30.887l-9.702,31.138h-14.092l-8.522-30.882c-2.604-9.357-5.207-20.611-7.227-31.143h-0.233
		c-0.34,10.776-0.829,23.082-1.297,33.034l-1.54,30.286h-16.685l5.079-79.771h24.027l7.822,26.631
		c2.593,9.235,4.973,19.176,6.737,28.528h0.468c2.136-9.225,4.856-19.761,7.587-28.656l8.396-26.503h23.677l4.251,79.771h-17.514
		L707.837,411.308z"/>
	<path clip-path="url(#SVGID_2_)" fill="#003DA6" d="M798.962,439.597c-3.198,1.552-10.775,3.443-20.36,3.443
		c-27.577,0-41.774-17.279-41.774-40.005c0-27.109,19.404-42.136,43.56-42.136c9.341,0,16.439,1.892,19.639,3.433l-3.783,14.314
		c-3.561-1.53-8.64-2.955-15.144-2.955c-14.208,0-25.335,8.64-25.335,26.397c0,15.851,9.479,25.925,25.441,25.925
		c5.568,0,11.477-1.063,15.153-2.614L798.962,439.597z"/>
	<path clip-path="url(#SVGID_2_)" fill="#003DA6" d="M852.809,362.079v45.807c0,13.837,5.313,20.829,14.432,20.829
		c9.469,0,14.687-6.631,14.687-20.829v-45.807h17.98v44.744c0,24.612-12.423,36.345-33.252,36.345
		c-20.116,0-31.838-11.265-31.838-36.6v-44.489H852.809z"/>
	<path clip-path="url(#SVGID_2_)" fill="#003DA6" d="M935.061,368.232v15.749h12.901v13.252h-12.901v20.94
		c0,6.993,1.765,10.202,7.088,10.202c2.498,0,3.678-0.128,5.335-0.489l0.117,13.624c-2.253,0.808-6.631,1.53-11.604,1.53
		c-5.803,0-10.648-2.02-13.603-4.974c-3.326-3.443-4.974-9.012-4.974-17.173v-23.661h-7.693v-13.252h7.693v-10.893L935.061,368.232z
		"/>
	<path clip-path="url(#SVGID_2_)" fill="#003DA6" d="M958.365,403.035c0-8.523-0.116-14.091-0.478-19.054h15.388l0.701,10.765h0.488
		c2.955-8.523,9.947-12.072,15.622-12.072c1.657,0,2.486,0.117,3.783,0.351v16.929c-1.424-0.234-2.827-0.467-4.846-0.467
		c-6.632,0-11.138,3.421-12.327,9.102c-0.224,1.189-0.34,2.486-0.34,4.038v29.224h-17.992V403.035z"/>
	<path clip-path="url(#SVGID_2_)" fill="#003DA6" d="M1016.239,418.662c0.585,7.438,7.938,11.009,16.334,11.009
		c6.143,0,11.115-0.85,15.972-2.508l2.37,12.2c-5.908,2.486-13.135,3.677-20.945,3.677c-19.649,0-30.893-11.371-30.893-29.479
		c0-14.681,9.225-30.897,29.224-30.897c18.715,0,25.803,14.559,25.803,28.9c0,3.081-0.34,5.802-0.585,7.099H1016.239z
		 M1037.419,406.34c0-4.367-1.892-11.711-10.053-11.711c-7.694,0-10.776,6.982-11.243,11.711H1037.419z"/>
	<path clip-path="url(#SVGID_2_)" fill="#003DA6" d="M1108.321,440.319c-3.209,1.53-9.234,2.721-16.1,2.721
		c-18.692,0-30.658-11.498-30.658-29.606c0-16.796,11.604-30.643,33.135-30.643c4.739,0,9.946,0.829,13.729,2.253l-2.826,13.368
		c-2.147-0.945-5.335-1.774-10.074-1.774c-9.458,0-15.611,6.748-15.494,16.095c0,10.647,7.099,16.216,15.855,16.216
		c4.25,0,7.565-0.701,10.286-1.892L1108.321,440.319z"/>
	<path clip-path="url(#SVGID_2_)" fill="#003DA6" d="M1118.247,357.701h17.991v33.251h0.244c1.893-2.604,4.262-4.612,7.1-6.025
		c2.72-1.424,6.036-2.253,9.352-2.253c11.477,0,20.233,7.928,20.233,25.446v33.729h-17.98v-31.838
		c0-7.572-2.614-12.779-9.352-12.779c-4.74,0-7.694,3.071-8.991,6.386c-0.488,1.063-0.605,2.604-0.605,3.906v34.324h-17.991V357.701
		z"/>
	<path clip-path="url(#SVGID_2_)" fill="#003DA6" d="M1207.014,368.232v15.749h12.901v13.252h-12.901v20.94
		c0,6.993,1.774,10.202,7.099,10.202c2.486,0,3.677-0.128,5.335-0.489l0.117,13.624c-2.254,0.808-6.632,1.53-11.605,1.53
		c-5.802,0-10.647-2.02-13.602-4.974c-3.316-3.443-4.974-9.012-4.974-17.173v-23.661h-7.694v-13.252h7.694v-10.893L1207.014,368.232
		z"/>
</g>
</svg>
